<?xml version="1.0" encoding="UTF-8"?><svg id="Capa_1" xmlns="http://www.w3.org/2000/svg" viewBox="0 0 202.91 202.91"><defs><style>.cls-1{fill:#5ea031;}.cls-1,.cls-2,.cls-3,.cls-4,.cls-5,.cls-6,.cls-7,.cls-8,.cls-9,.cls-10,.cls-11,.cls-12,.cls-13,.cls-14,.cls-15,.cls-16,.cls-17,.cls-18,.cls-19,.cls-20,.cls-21,.cls-22,.cls-23{stroke-width:0px;}.cls-2{fill:#76a72c;}.cls-3{fill:#76a62c;}.cls-4{fill:#74ac2c;}.cls-5{fill:#77b02b;}.cls-6{fill:#77b22b;}.cls-7{fill:#609c31;}.cls-8{fill:#70a42e;}.cls-9{fill:#50ae32;}.cls-10{fill:#629e30;}.cls-11{fill:#85bc25;}.cls-12{fill:#88bb25;}.cls-13{fill:#8abd24;}.cls-14{fill:#95c11f;}.cls-15{fill:#96c11e;}.cls-16{fill:#82bb26;}.cls-17{fill:#1ca638;}.cls-18{fill:#a5c721;}.cls-19{fill:#9cc65a;}.cls-20{fill:#65922f;}.cls-21{fill:#6b9b2f;}.cls-22{fill:#659f30;}.cls-23{fill:#68932e;}</style></defs><path class="cls-10" d="m33.71,25.93v7.98h-7.98c2.51-2.82,5.18-5.47,7.98-7.98Z"/><path class="cls-6" d="m67.51,5.9v28.01h-33.8v-7.98c9.76-8.73,21.21-15.6,33.8-20.03Z"/><path class="cls-6" d="m135.14,5.88v28.03h-33.81V.11c11.85,0,23.23,2.03,33.81,5.77Z"/><path class="cls-22" d="m101.34.11v33.8h-33.83V5.9C78.08,2.13,89.47.11,101.34.11Z"/><path class="cls-8" d="m176.95,33.91h-7.98v-7.98c2.79,2.51,5.47,5.16,7.98,7.98Z"/><path class="cls-13" d="m168.97,25.93v7.98h-33.83V5.88c12.6,4.46,24.06,11.32,33.83,20.05Z"/><path class="cls-13" d="m67.51,33.91v32.35c-.61.47-1.24.97-1.86,1.48h-31.94v-33.83h33.8Z"/><path class="cls-18" d="m101.34,33.91v20.15c-11.06-1.03-20.92,2.31-33.83,12.19v-32.35h33.83Z"/><path class="cls-7" d="m168.97,33.91v33.83h-10.61c-6.91-2.65-14.87-4.54-23.21-5.51v-28.32h33.83Z"/><path class="cls-15" d="m135.14,33.91v28.32c-2.59-.3-5.21-.53-7.84-.65-10.15-4.09-18.35-6.85-25.97-7.51v-20.15h33.81Z"/><path class="cls-3" d="m33.71,33.91v33.83H5.65c4.46-12.62,11.34-24.08,20.07-33.83h7.98Z"/><path class="cls-16" d="m197.02,67.74h-28.05v-33.83h7.98c8.73,9.74,15.62,21.21,20.07,33.83Z"/><path class="cls-2" d="m33.71,67.74v33.8H-.12c0-11.85,2.03-23.23,5.77-33.8h28.05Z"/><path class="cls-11" d="m65.65,67.74c-3.97,3.14-8.22,6.91-12.88,11.32-5.35,5.85-9.54,13.57-12.82,22.48h-6.24v-33.8h31.94Z"/><path class="cls-9" d="m135.14,101.46v.08h-.06s.04-.06.06-.08Z"/><path class="cls-5" d="m202.79,101.54h-33.83v-9.38c3.89-.79,7.53-1.74,9.62-2.63,1.36,2.07,2.63,2.69,2.77-.49-.65-6.18-5.29-11.69-12.4-16.12v-5.19h28.05c3.75,10.57,5.77,21.96,5.77,33.8Z"/><path class="cls-19" d="m168.97,67.74v5.19c-3.1-1.94-6.68-3.69-10.61-5.19h10.61Z"/><path class="cls-19" d="m155.6,94.05c2.9-.06,8.32-.83,13.37-1.88v9.38h-33.83v-.08c3.5-4.96,15.66-7.41,20.46-7.41Z"/><path class="cls-14" d="m39.94,101.54c-2.63,7.07-4.66,14.87-6.24,23.07v-23.07h6.24Z"/><path class="cls-1" d="m168.97,101.54v33.83h-2.82c-21.51-12.52-28.74-19.71-31.01-25.1v-8.73h33.83Z"/><path class="cls-17" d="m135.14,101.54v8.73c-.97-2.27-1.05-4.21-.97-6.12.02-.93.34-1.82.91-2.61h.06Z"/><path class="cls-4" d="m33.71,101.54v23.07c-.67,3.52-1.28,7.11-1.76,10.76H5.65C1.91,124.79-.12,113.41-.12,101.54h33.83Z"/><path class="cls-12" d="m202.79,101.54c0,11.87-2.03,23.25-5.77,33.83h-28.05v-33.83h33.83Z"/><path class="cls-21" d="m31.94,135.37c-1.6,11.14-2.45,22.71-2.82,33.83h-3.4c-8.73-9.74-15.62-21.21-20.07-33.83h26.29Z"/><path class="cls-20" d="m197.02,135.37c-1.96,5.55-4.4,10.88-7.25,15.94-5.65-4.05-11.79-8.37-18.37-12.94-.83-.47-1.64-.93-2.43-1.38v-1.62h28.05Z"/><path class="cls-17" d="m168.97,135.37v1.62c-.97-.55-1.9-1.09-2.82-1.62h2.82Z"/><path class="cls-23" d="m29.13,169.19c-.06,1.17-.08,2.35-.12,3.5-1.11-1.13-2.21-2.31-3.28-3.5h3.4Z"/></svg>